<svg width="32" height="24" viewBox="0 0 32 24" fill="none" xmlns="http://www.w3.org/2000/svg">
<path fill-rule="evenodd" clip-rule="evenodd" d="M9.69382 21.7995C6.94593 19.735 5.29547 16.5037 5.29547 13C5.29547 6.92487 10.2203 2 16.2955 2C22.3706 2 27.2955 6.92487 27.2955 13C27.2955 16.5037 25.645 19.735 22.8971 21.7995L22.6302 22H9.96069L9.69382 21.7995ZM21.9529 20C24.0485 18.305 25.2955 15.757 25.2955 13C25.2955 8.02944 21.266 4 16.2955 4C11.3249 4 7.29547 8.02944 7.29547 13C7.29547 15.757 8.54245 18.305 10.638 20H21.9529ZM21.6147 7.57346L19.9762 6.42654L17.3432 10.188C17.017 10.0665 16.664 10 16.2955 10C14.6386 10 13.2955 11.3431 13.2955 13C13.2955 14.6569 14.6386 16 16.2955 16C17.9523 16 19.2955 14.6569 19.2955 13C19.2955 12.4445 19.1445 11.9243 18.8814 11.4782L21.6147 7.57346ZM17.2955 13C17.2955 13.5523 16.8478 14 16.2955 14C15.7432 14 15.2955 13.5523 15.2955 13C15.2955 12.4477 15.7432 12 16.2955 12C16.8478 12 17.2955 12.4477 17.2955 13Z" fill="#212429"/>
</svg>
