<svg width="32" height="24" viewBox="0 0 32 24" fill="none" xmlns="http://www.w3.org/2000/svg">
<path fill-rule="evenodd" clip-rule="evenodd" d="M23.2471 20.897L25.4643 18.6798L24.6834 15.843L25.0236 15.0305L27.5909 13.5818V10.4464L25.0309 8.99173L24.6964 8.18067L25.4871 5.34235L23.2683 3.12683L20.4312 3.90748L19.6206 3.56758L18.1718 1H15.0364L13.5817 3.56004L12.7708 3.89446L9.93292 3.10281L7.71765 5.31809L8.49842 8.15567L8.15852 8.96634L5.59094 10.4151V13.5496L8.14868 15.0076L8.48346 15.8193L7.69291 18.6572L9.90903 20.8733L12.7466 20.0925L13.5574 20.4325L15.0062 22.999H18.1408L19.5977 20.4412L20.4093 20.1065L23.2471 20.897ZM23.4436 13.6256L22.5718 15.7078L23.2271 18.0886L22.6587 18.657L20.283 17.9951L18.1999 18.8542L16.9783 20.999H16.1739L14.9623 18.8529L12.8825 17.9808L10.5004 18.6362L9.93297 18.0688L10.5948 15.693L9.73576 13.6101L7.59094 12.3876V11.583L9.73804 10.3715L10.6101 8.29155L9.9547 5.90947L10.521 5.34321L12.8967 6.00595L14.9805 5.14655L16.2002 3H17.0039L18.2154 5.1471L20.2953 6.0192L22.6779 5.36362L23.2468 5.93166L22.5851 8.30696L23.4444 10.3906L25.5909 11.6103V12.4139L23.4436 13.6256ZM16.5909 16C14.3818 16 12.5909 14.2091 12.5909 12C12.5909 9.79086 14.3818 8 16.5909 8C18.8001 8 20.5909 9.79086 20.5909 12C20.5909 14.2091 18.8001 16 16.5909 16ZM18.5909 12C18.5909 13.1046 17.6955 14 16.5909 14C15.4864 14 14.5909 13.1046 14.5909 12C14.5909 10.8954 15.4864 10 16.5909 10C17.6955 10 18.5909 10.8954 18.5909 12Z" fill="#212429"/>
</svg>
