<svg width="32" height="24" viewBox="0 0 32 24" fill="none" xmlns="http://www.w3.org/2000/svg">
<path fill-rule="evenodd" clip-rule="evenodd" d="M11.6246 6C11.9185 3.81519 14.1019 2 16.591 2C19.08 2 21.2634 3.81519 21.5574 6H24.4379C25.5425 6 26.4379 6.89543 26.4379 8C26.4379 8.09464 26.4312 8.18916 26.4178 8.28284L24.7036 20.2828C24.5628 21.2681 23.719 22 22.7237 22H10.4583C9.46295 22 8.61911 21.2681 8.47835 20.2828L6.76407 8.28284C6.60786 7.18937 7.36766 6.17631 8.46113 6.0201C8.55481 6.00672 8.64933 6 8.74397 6H11.6246ZM19.5188 6C19.2148 4.93808 17.989 4 16.591 4C15.1929 4 13.9671 4.93808 13.6631 6H19.5188ZM8.74397 8H11.591V10H13.591V8H19.591V10H21.591V8H24.4379L22.7237 20H10.4583L8.74397 8Z" fill="#212429"/>
</svg>
