<svg width="32" height="24" viewBox="0 0 32 24" fill="none" xmlns="http://www.w3.org/2000/svg">
<path fill-rule="evenodd" clip-rule="evenodd" d="M16.5909 23C10.5158 23 5.59094 18.0751 5.59094 12C5.59094 5.92487 10.5158 1 16.5909 1C22.6661 1 27.5909 5.92487 27.5909 12C27.5909 18.0751 22.6661 23 16.5909 23ZM23.9904 17.1246C24.9996 15.6703 25.5909 13.9042 25.5909 12C25.5909 7.02944 21.5615 3 16.5909 3C11.6204 3 7.59094 7.02944 7.59094 12C7.59094 13.9042 8.18232 15.6703 9.19145 17.1246C10.3169 15.6381 12.9615 15 16.5909 15C20.2203 15 22.865 15.6381 23.9904 17.1246ZM22.5556 18.7398C22.2629 17.6874 20.1603 17 16.5909 17C13.0216 17 10.9189 17.6874 10.6263 18.7398C12.2142 20.1462 14.3029 21 16.5909 21C18.879 21 20.9676 20.1462 22.5556 18.7398ZM16.5909 15C14.3518 15 12.5909 13.4274 12.5909 10C12.5909 7.75576 14.17 6 16.5909 6C19.0051 6 20.5909 7.92158 20.5909 10.2C20.5909 13.4796 18.809 15 16.5909 15ZM14.5909 10C14.5909 12.2693 15.4092 13 16.5909 13C17.7686 13 18.5909 12.2984 18.5909 10.2C18.5909 8.95042 17.8066 8 16.5909 8C15.3247 8 14.5909 8.81582 14.5909 10Z" fill="#212429"/>
</svg>
