<svg width="32" height="24" viewBox="0 0 32 24" fill="none" xmlns="http://www.w3.org/2000/svg">
<path fill-rule="evenodd" clip-rule="evenodd" d="M16.5909 23C10.5158 23 5.59094 18.0751 5.59094 12C5.59094 5.92487 10.5158 1 16.5909 1C22.6661 1 27.5909 5.92487 27.5909 12C27.5909 18.0751 22.6661 23 16.5909 23ZM16.5909 21C21.5615 21 25.5909 16.9706 25.5909 12C25.5909 7.02944 21.5615 3 16.5909 3C11.6204 3 7.59094 7.02944 7.59094 12C7.59094 16.9706 11.6204 21 16.5909 21ZM17.5909 15C17.5909 16.6569 18.9341 18 20.5909 18C22.2478 18 23.5909 16.6569 23.5909 15C23.5909 13.3431 22.2478 12 20.5909 12C18.9341 12 17.5909 13.3431 17.5909 15ZM20.5909 16C21.1432 16 21.5909 15.5523 21.5909 15C21.5909 14.4477 21.1432 14 20.5909 14C20.0387 14 19.5909 14.4477 19.5909 15C19.5909 15.5523 20.0387 16 20.5909 16ZM9.59094 9C9.59094 10.6569 10.9341 12 12.5909 12C14.2478 12 15.5909 10.6569 15.5909 9C15.5909 7.34315 14.2478 6 12.5909 6C10.9341 6 9.59094 7.34315 9.59094 9ZM12.5909 10C13.1432 10 13.5909 9.55228 13.5909 9C13.5909 8.44772 13.1432 8 12.5909 8C12.0387 8 11.5909 8.44772 11.5909 9C11.5909 9.55228 12.0387 10 12.5909 10ZM14.709 18L20.709 6H18.4729L12.4729 18H14.709Z" fill="#212429"/>
</svg>
