<svg width="32" height="24" viewBox="0 0 32 24" fill="none" xmlns="http://www.w3.org/2000/svg">
<path fill-rule="evenodd" clip-rule="evenodd" d="M10.088 7C9.75978 6.46338 9.59094 5.80285 9.59094 5C9.59094 3.41709 10.7813 2 12.5909 2C14.4029 2 15.8642 3.21363 16.5909 5.11383C17.3177 3.21363 18.7789 2 20.5909 2C22.4006 2 23.5909 3.41709 23.5909 5C23.5909 5.80285 23.4221 6.46338 23.0939 7H24.5909C25.6955 7 26.5909 7.89543 26.5909 9V11C26.5909 12.1046 25.6955 13 24.5909 13V20C24.5909 21.1046 23.6955 22 22.5909 22H10.5909C9.48637 22 8.59094 21.1046 8.59094 20V13C7.48637 13 6.59094 12.1046 6.59094 11V9C6.59094 7.89543 7.48637 7 8.59094 7H10.088ZM15.5909 9H8.59094V11H15.5909V9ZM24.5909 11H17.5909V9H24.5909V11ZM15.5909 20V13H10.5909V20H15.5909ZM22.5909 20H17.5909V13H22.5909V20ZM12.5909 4C11.9706 4 11.5909 4.45196 11.5909 5C11.5909 6.25323 12.6079 6.84912 15.0204 6.97449C14.7522 5.1116 13.7531 4 12.5909 4ZM18.0909 6.97449C18.3591 5.1116 19.3582 4 20.5204 4C21.1407 4 21.5204 4.45196 21.5204 5C21.5204 6.25323 20.5034 6.84912 18.0909 6.97449Z" fill="#212429"/>
</svg>
